<svg width="13" height="12" viewBox="0 0 13 12" fill="none" xmlns="http://www.w3.org/2000/svg">
<path d="M6.02448 0.46332C6.17416 0.00268888 6.82584 0.00268781 6.97552 0.463319L8.07174 3.83671C8.13868 4.0427 8.33065 4.18217 8.54725 4.18218L12.0943 4.18231C12.5786 4.18233 12.78 4.80211 12.3882 5.08681L9.51864 7.17181C9.34341 7.29914 9.27009 7.5248 9.33701 7.7308L10.433 11.1043C10.5826 11.5649 10.0554 11.948 9.66357 11.6633L6.79388 9.5785C6.61864 9.45119 6.38136 9.45119 6.20612 9.5785L3.33643 11.6633C2.94458 11.948 2.41737 11.5649 2.56702 11.1043L3.66299 7.7308C3.72991 7.5248 3.65659 7.29914 3.48136 7.17181L0.611831 5.08681C0.220001 4.80211 0.421377 4.18233 0.905719 4.18231L4.45275 4.18218C4.66935 4.18217 4.86132 4.0427 4.92826 3.83671L6.02448 0.46332Z" fill="#222222"/>
</svg>
