<svg width="15" height="15" viewBox="0 0 15 15" fill="none" xmlns="http://www.w3.org/2000/svg">
<path d="M7.5 1.61785L8.59622 4.99123C8.7301 5.40322 9.11403 5.68216 9.54723 5.68218L13.0943 5.68231L10.2247 7.76732C9.87428 8.02196 9.72763 8.47329 9.86148 8.88529L10.9574 12.2588L8.08776 10.174C7.73728 9.91936 7.26272 9.91936 6.91225 10.174L4.04256 12.2588L5.13852 8.88529C5.27237 8.47329 5.12572 8.02196 4.77527 7.76732L4.48136 8.17181L4.77527 7.76732L1.90574 5.68231L5.45277 5.68218C5.88597 5.68216 6.2699 5.40322 6.40378 4.99123L7.5 1.61785Z" stroke="#A7A7A7"/>
<path fill-rule="evenodd" clip-rule="evenodd" d="M8 1.53872L7.97553 1.46339C7.82584 1.00276 7.17417 1.00276 7.02448 1.46339L5.92826 4.83678C5.86132 5.04278 5.66936 5.18225 5.45276 5.18225L1.90572 5.18239C1.42138 5.18241 1.22001 5.80218 1.61184 6.08689L4.48137 8.17189C4.65659 8.29921 4.72992 8.52488 4.66299 8.73088L3.56703 12.1043C3.41737 12.565 3.94459 12.948 4.33644 12.6634L7.20613 10.5786C7.38136 10.4513 7.61864 10.4513 7.79388 10.5786L8 10.7283V1.53872Z" fill="#222222"/>
</svg>
