<svg width="48" height="48" viewBox="0 0 48 48" fill="none" xmlns="http://www.w3.org/2000/svg">
<rect width="48" height="48" fill="white"/>
<path fill-rule="evenodd" clip-rule="evenodd" d="M11 5C7.68629 5 5 7.68629 5 11V27C5 30.3137 7.68629 33 11 33H22.3333L37 43L34.1795 33H37C40.3137 33 43 30.3137 43 27V11C43 7.68629 40.3137 5 37 5H11Z" fill="#FEFEFE"/>
<path d="M22.3333 33L22.8967 32.1738C22.7306 32.0606 22.5343 32 22.3333 32V33ZM37 43L36.4367 43.8262C36.7841 44.0631 37.2426 44.0573 37.584 43.8118C37.9254 43.5662 38.0766 43.1333 37.9624 42.7285L37 43ZM34.1795 33V32C33.8663 32 33.5712 32.1467 33.3822 32.3965C33.1931 32.6462 33.132 32.97 33.217 33.2715L34.1795 33ZM6 11C6 8.23858 8.23858 6 11 6V4C7.13401 4 4 7.13401 4 11H6ZM6 27V11H4V27H6ZM11 32C8.23858 32 6 29.7614 6 27H4C4 30.866 7.13401 34 11 34V32ZM22.3333 32H11V34H22.3333V32ZM37.5633 42.1738L22.8967 32.1738L21.77 33.8262L36.4367 43.8262L37.5633 42.1738ZM33.217 33.2715L36.0375 43.2715L37.9624 42.7285L35.1419 32.7285L33.217 33.2715ZM37 32H34.1795V34H37V32ZM42 27C42 29.7614 39.7614 32 37 32V34C40.866 34 44 30.866 44 27H42ZM42 11V27H44V11H42ZM37 6C39.7614 6 42 8.23858 42 11H44C44 7.13401 40.866 4 37 4V6ZM11 6H37V4H11V6Z" fill="#D3D3D3"/>
<circle cx="12.5" cy="19.5" r="1.5" fill="#D3D3D3"/>
<circle cx="23.5" cy="19.5" r="1.5" fill="#D3D3D3"/>
<circle cx="35.5" cy="19.5" r="1.5" fill="#D3D3D3"/>
</svg>
