<svg width="28" height="28" viewBox="0 0 28 28" fill="none" xmlns="http://www.w3.org/2000/svg">
<path fill-rule="evenodd" clip-rule="evenodd" d="M12.6 1.4C12.6 0.626801 13.2268 0 14 0C14.7732 0 15.4 0.626801 15.4 1.4V2.8C15.4 2.82899 15.3991 2.85777 15.3974 2.88633C20.4657 3.51712 24.4829 7.53431 25.1137 12.6026C25.1422 12.6009 25.171 12.6 25.2 12.6H26.6C27.3732 12.6 28 13.2268 28 14C28 14.7732 27.3732 15.4 26.6 15.4H25.2C25.171 15.4 25.1422 15.3991 25.1137 15.3974C24.4829 20.4657 20.4657 24.4829 15.3974 25.1137C15.3991 25.1422 15.4 25.171 15.4 25.2V26.6C15.4 27.3732 14.7732 28 14 28C13.2268 28 12.6 27.3732 12.6 26.6V25.2C12.6 25.171 12.6009 25.1422 12.6026 25.1137C7.53431 24.4829 3.51712 20.4657 2.88632 15.3974C2.85777 15.3991 2.82899 15.4 2.8 15.4H1.4C0.626801 15.4 0 14.7732 0 14C0 13.2268 0.626801 12.6 1.4 12.6H2.8C2.82899 12.6 2.85777 12.6009 2.88632 12.6026C3.51712 7.53431 7.5343 3.51712 12.6026 2.88633C12.6009 2.85777 12.6 2.82899 12.6 2.8V1.4ZM22.4 14C22.4 18.6392 18.6392 22.4 14 22.4C9.36081 22.4 5.6 18.6392 5.6 14C5.6 9.36081 9.36081 5.6 14 5.6C18.6392 5.6 22.4 9.36081 22.4 14Z" fill="#222222"/>
<circle cx="14" cy="14" r="3" fill="#222222"/>
</svg>
