<svg width="18" height="16" viewBox="0 0 18 16" fill="none" xmlns="http://www.w3.org/2000/svg">
<path fill-rule="evenodd" clip-rule="evenodd" d="M0 1C0 0.447715 0.447715 0 1 0H17C17.5523 0 18 0.447715 18 1C18 1.55228 17.5523 2 17 2H1C0.447715 2 0 1.55228 0 1ZM0 8C0 7.44772 0.447715 7 1 7H12.5C13.0523 7 13.5 7.44772 13.5 8C13.5 8.55229 13.0523 9 12.5 9H1C0.447715 9 0 8.55229 0 8ZM1 14C0.447715 14 0 14.4477 0 15C0 15.5523 0.447715 16 1 16H17C17.5523 16 18 15.5523 18 15C18 14.4477 17.5523 14 17 14H1Z" fill="#222222"/>
</svg>
