<svg width="6" height="10" viewBox="0 0 6 10" fill="none" xmlns="http://www.w3.org/2000/svg">
<path fill-rule="evenodd" clip-rule="evenodd" d="M0.279226 1.61242C-0.0930757 1.24356 -0.0930757 0.645511 0.279226 0.276648C0.651527 -0.0922159 1.25515 -0.0922159 1.62745 0.276648L5.7086 4.32011C5.71268 4.32402 5.71674 4.32797 5.72077 4.33196C5.90695 4.51642 6.00003 4.75819 6 4.99996C6.00003 5.24172 5.90695 5.48349 5.72077 5.66795C5.71674 5.67194 5.71268 5.67589 5.7086 5.6798L1.62745 9.72326C1.25515 10.0921 0.651527 10.0921 0.279226 9.72326C-0.0930757 9.3544 -0.0930757 8.75635 0.279226 8.38749L3.69833 4.99995L0.279226 1.61242Z" fill="#7A7A7A"/>
</svg>
