<svg width="15" height="14" viewBox="0 0 15 14" fill="none" xmlns="http://www.w3.org/2000/svg">
<path fill-rule="evenodd" clip-rule="evenodd" d="M12.0034 10.4966L14.2153 12.6798L12.8777 14L10.6516 11.8028C7.85023 13.8246 3.94222 13.3666 1.69835 10.7536C-0.545523 8.14057 -0.36275 4.26044 2.11708 1.86418C4.59692 -0.53209 8.53112 -0.630192 11.1304 1.63942C13.7297 3.90904 14.1107 7.77511 12.0034 10.4966ZM6.73351 1.87122C4.12323 1.87122 2.00717 3.95978 2.00717 6.53615C2.00717 9.11252 4.12323 11.2011 6.73351 11.2011C9.3438 11.2011 11.4599 9.11252 11.4599 6.53615C11.4599 3.95978 9.3438 1.87122 6.73351 1.87122Z" fill="#333333"/>
</svg>
