<svg width="193" height="35" viewBox="0 0 193 35" fill="none" xmlns="http://www.w3.org/2000/svg">
<path d="M14.076 16.396C13.932 19.636 13.74 22.372 13.5 24.604C13.38 25.372 13.068 25.972 12.564 26.404C12.084 26.86 11.376 27.064 10.44 27.016C9.59997 26.968 9.01197 26.716 8.67597 26.26C8.33997 25.804 8.14797 25.168 8.09997 24.352C8.05197 22.984 8.01597 21.52 7.99197 19.96C7.99197 18.376 7.99197 16.78 7.99197 15.172C7.99197 13.564 7.99197 11.98 7.99197 10.42C8.01597 8.836 8.05197 7.348 8.09997 5.956C7.16397 5.98 6.27597 5.992 5.43597 5.992C4.59597 5.992 3.76797 5.992 2.95197 5.992C2.27997 5.992 1.75197 5.8 1.36797 5.416C0.98397 5.008 0.77997 4.324 0.75597 3.364C0.73197 2.524 0.92397 1.888 1.33197 1.456C1.73997 0.999999 2.21997 0.747999 2.77197 0.7C5.79597 0.507999 8.72397 0.387999 11.556 0.339998C14.412 0.291998 17.244 0.267999 20.052 0.267999C20.532 0.267999 20.928 0.435999 21.24 0.771999C21.552 1.084 21.708 1.636 21.708 2.428C21.708 3.436 21.54 4.144 21.204 4.552C20.892 4.936 20.472 5.152 19.944 5.2C19.056 5.296 18.156 5.38 17.244 5.452C16.356 5.524 15.396 5.584 14.364 5.632C14.316 9.544 14.22 13.132 14.076 16.396ZM34.5771 26.548C34.1211 26.164 33.8571 25.516 33.7851 24.604C33.3051 25.372 32.5851 25.948 31.6251 26.332C30.6891 26.74 29.7051 26.98 28.6731 27.052C26.6331 27.196 25.0131 26.74 23.8131 25.684C22.6131 24.652 21.9171 23.056 21.7251 20.896C21.5571 18.952 21.4371 16.948 21.3651 14.884C21.2931 12.82 21.2931 10.78 21.3651 8.764C21.3891 8.284 21.5811 7.9 21.9411 7.612C22.3251 7.324 23.0571 7.168 24.1371 7.144C25.2171 7.12 25.9371 7.264 26.2971 7.576C26.6811 7.864 26.8851 8.284 26.9091 8.836C26.9091 9.052 26.9211 9.412 26.9451 9.916C26.9691 10.42 26.9811 10.996 26.9811 11.644C27.0051 12.292 27.0171 12.988 27.0171 13.732C27.0411 14.452 27.0531 15.16 27.0531 15.856C27.0771 16.552 27.0891 17.188 27.0891 17.764C27.1131 18.34 27.1251 18.784 27.1251 19.096C27.1251 20.104 27.3891 20.872 27.9171 21.4C28.4691 21.904 29.3811 22.096 30.6531 21.976C31.6851 21.856 32.4891 21.52 33.0651 20.968C33.6651 20.416 33.9651 19.72 33.9651 18.88C33.9651 17.392 33.9651 15.748 33.9651 13.948C33.9891 12.124 34.0011 10.432 34.0011 8.872C34.0011 8.152 34.2531 7.684 34.7571 7.468C35.2851 7.252 35.9691 7.144 36.8091 7.144C37.7211 7.144 38.3931 7.216 38.8251 7.36C39.2571 7.504 39.4971 7.912 39.5451 8.584C39.6171 9.808 39.6531 11.128 39.6531 12.544C39.6531 13.936 39.6291 15.34 39.5811 16.756C39.5571 18.172 39.5091 19.552 39.4371 20.896C39.3651 22.216 39.2931 23.404 39.2211 24.46C39.1971 24.772 39.1491 25.084 39.0771 25.396C39.0291 25.708 38.9211 25.984 38.7531 26.224C38.5851 26.488 38.3451 26.704 38.0331 26.872C37.7211 27.04 37.3011 27.124 36.7731 27.124C35.7891 27.124 35.0571 26.932 34.5771 26.548ZM47.8381 19.564C47.8381 20.932 47.8141 22.528 47.7661 24.352C47.7181 25.168 47.5381 25.804 47.2261 26.26C46.9381 26.716 46.3741 26.968 45.5341 27.016C44.5981 27.064 43.8901 26.872 43.4101 26.44C42.9301 26.008 42.6541 25.408 42.5821 24.64C42.3661 22.24 42.1861 19.792 42.0421 17.296C41.8981 14.8 41.8261 12.136 41.8261 9.304C41.8261 9.016 41.8621 8.752 41.9341 8.512C42.0061 8.248 42.1501 8.02 42.3661 7.828C42.5821 7.636 42.8821 7.48 43.2661 7.36C43.6501 7.24 44.1541 7.156 44.7781 7.108C45.4261 7.06 45.9421 7.072 46.3261 7.144C46.7101 7.192 46.9981 7.312 47.1901 7.504C47.4061 7.672 47.5501 7.912 47.6221 8.224C47.6941 8.536 47.7541 8.944 47.8021 9.448C48.3301 8.752 49.0621 8.224 49.9981 7.864C50.9581 7.48 51.9181 7.252 52.8781 7.18C53.9341 7.108 54.9061 7.192 55.7941 7.432C56.7061 7.648 57.4861 8.02 58.1341 8.548C58.8061 9.076 59.3221 9.76 59.6821 10.6C60.0661 11.416 60.2581 12.376 60.2581 13.48C60.2581 15.016 60.2341 16.384 60.1861 17.584C60.1621 18.76 60.1141 19.816 60.0421 20.752C59.9941 21.688 59.9221 22.528 59.8261 23.272C59.7301 23.992 59.6101 24.652 59.4661 25.252C59.3221 25.9 58.9501 26.38 58.3501 26.692C57.7741 27.004 57.1741 27.136 56.5501 27.088C56.0941 27.04 55.6861 26.872 55.3261 26.584C54.9661 26.32 54.7621 25.804 54.7141 25.036C54.6661 24.364 54.6301 23.632 54.6061 22.84C54.6061 22.024 54.6061 21.208 54.6061 20.392C54.6061 19.552 54.6061 18.736 54.6061 17.944C54.6061 17.128 54.6061 16.372 54.6061 15.676C54.5821 14.524 54.2341 13.672 53.5621 13.12C52.8901 12.568 52.0501 12.316 51.0421 12.364C50.0101 12.412 49.2181 12.724 48.6661 13.3C48.1381 13.852 47.8741 14.572 47.8741 15.46C47.8741 16.804 47.8621 18.172 47.8381 19.564ZM79.2765 26.656C78.9405 26.656 78.7245 26.524 78.6285 26.26C78.5085 25.852 78.3885 25.456 78.2685 25.072C78.1485 24.688 78.0045 24.232 77.8365 23.704C77.5485 24.16 77.1765 24.58 76.7205 24.964C76.2885 25.348 75.7965 25.684 75.2445 25.972C74.7165 26.26 74.1405 26.488 73.5165 26.656C72.9165 26.848 72.3285 26.956 71.7525 26.98C70.4805 27.052 69.2565 26.872 68.0805 26.44C66.9045 26.008 65.8725 25.36 64.9845 24.496C64.1205 23.632 63.4245 22.588 62.8965 21.364C62.3925 20.116 62.1525 18.724 62.1765 17.188C62.2005 15.532 62.4885 14.068 63.0405 12.796C63.5925 11.524 64.3245 10.456 65.2365 9.592C66.1485 8.728 67.1925 8.092 68.3685 7.684C69.5445 7.252 70.7685 7.072 72.0405 7.144C73.4085 7.216 74.5485 7.504 75.4605 8.008C76.3965 8.512 77.0325 9.184 77.3685 10.024L77.5485 8.332C77.6205 7.732 77.8245 7.396 78.1605 7.324C78.9285 7.204 79.6245 7.144 80.2485 7.144C80.8725 7.144 81.5565 7.204 82.3005 7.324C82.8525 7.444 83.1405 7.924 83.1645 8.764C83.1885 9.604 83.2005 10.48 83.2005 11.392C83.2245 12.28 83.2365 13.168 83.2365 14.056C83.2365 16.288 83.2125 18.424 83.1645 20.464C83.1165 22.48 83.0565 24.136 82.9845 25.432C82.9605 25.84 82.8285 26.14 82.5885 26.332C82.3725 26.548 82.0845 26.656 81.7245 26.656H79.2765ZM75.0645 21.364C75.5925 21.1 76.0365 20.764 76.3965 20.356C76.7805 19.924 77.0805 19.432 77.2965 18.88C77.5125 18.304 77.6205 17.668 77.6205 16.972C77.5965 15.604 77.1765 14.5 76.3605 13.66C75.5685 12.82 74.4525 12.352 73.0125 12.256C72.2445 12.208 71.5365 12.304 70.8885 12.544C70.2405 12.76 69.6645 13.084 69.1605 13.516C68.6805 13.948 68.2965 14.476 68.0085 15.1C67.7445 15.7 67.6125 16.372 67.6125 17.116C67.6125 17.98 67.7565 18.748 68.0445 19.42C68.3325 20.068 68.7405 20.596 69.2685 21.004C69.7965 21.412 70.4085 21.7 71.1045 21.868C71.8245 22.036 72.6045 22.048 73.4445 21.904C74.0205 21.808 74.5605 21.628 75.0645 21.364ZM98.0927 27.34C97.9727 27.7 97.8047 27.976 97.5887 28.168C97.3967 28.36 97.1687 28.492 96.9047 28.564C96.6407 28.636 96.3767 28.684 96.1127 28.708C94.9847 28.852 93.6047 28.96 91.9727 29.032C90.3407 29.128 88.7447 29.188 87.1847 29.212C86.8487 29.212 86.5367 29.164 86.2487 29.068C85.9607 28.996 85.7087 28.852 85.4927 28.636C85.3007 28.42 85.1447 28.132 85.0247 27.772C84.9047 27.412 84.8447 26.956 84.8447 26.404C84.8447 25.324 85.0487 24.604 85.4567 24.244C85.8887 23.86 86.4167 23.656 87.0407 23.632C88.6247 23.584 90.1847 23.548 91.7207 23.524C93.2567 23.5 94.7567 23.512 96.2207 23.56C96.4847 23.56 96.7367 23.596 96.9767 23.668C97.2407 23.74 97.4687 23.872 97.6607 24.064C97.8527 24.232 98.0087 24.472 98.1287 24.784C98.2487 25.072 98.3087 25.468 98.3087 25.972C98.3087 26.548 98.2367 27.004 98.0927 27.34ZM113.331 7.864C114.339 8.368 115.047 9.124 115.455 10.132C115.935 9.292 116.571 8.62 117.363 8.116C118.179 7.612 119.079 7.3 120.063 7.18C120.975 7.084 121.839 7.156 122.655 7.396C123.495 7.636 124.227 8.032 124.851 8.584C125.475 9.112 125.967 9.796 126.327 10.636C126.687 11.452 126.867 12.412 126.867 13.516C126.867 14.62 126.843 15.736 126.795 16.864C126.747 17.968 126.687 19.036 126.615 20.068C126.543 21.1 126.459 22.072 126.363 22.984C126.267 23.896 126.171 24.712 126.075 25.432C126.003 25.912 125.679 26.32 125.103 26.656C124.551 26.992 123.927 27.136 123.231 27.088C122.919 27.064 122.607 27.016 122.295 26.944C122.007 26.872 121.743 26.752 121.503 26.584C121.263 26.44 121.071 26.236 120.927 25.972C120.783 25.732 120.711 25.42 120.711 25.036C120.711 24.364 120.711 23.584 120.711 22.696C120.735 21.808 120.747 20.896 120.747 19.96C120.771 19.024 120.783 18.112 120.783 17.224C120.807 16.336 120.819 15.556 120.819 14.884C120.819 14.068 120.627 13.432 120.243 12.976C119.883 12.52 119.319 12.316 118.551 12.364C117.855 12.412 117.339 12.64 117.003 13.048C116.667 13.432 116.487 13.936 116.463 14.56C116.439 15.376 116.403 16.324 116.355 17.404C116.331 18.484 116.283 19.564 116.211 20.644C116.163 21.724 116.103 22.732 116.031 23.668C115.983 24.58 115.923 25.3 115.851 25.828C115.803 26.212 115.479 26.5 114.879 26.692C114.279 26.908 113.631 26.992 112.935 26.944C112.383 26.896 111.855 26.764 111.351 26.548C110.847 26.356 110.583 25.984 110.559 25.432C110.535 24.736 110.511 23.932 110.487 23.02C110.487 22.084 110.487 21.136 110.487 20.176C110.487 19.192 110.487 18.232 110.487 17.296C110.487 16.336 110.475 15.496 110.451 14.776C110.403 13.984 110.199 13.372 109.839 12.94C109.479 12.508 108.927 12.316 108.183 12.364C107.415 12.436 106.875 12.688 106.563 13.12C106.251 13.528 106.095 14.116 106.095 14.884C106.095 16.372 106.095 17.632 106.095 18.664C106.095 19.696 106.083 20.584 106.059 21.328C106.059 22.072 106.047 22.708 106.023 23.236C106.023 23.74 106.011 24.22 105.987 24.676C105.867 26.236 104.919 27.016 103.143 27.016C101.607 27.016 100.767 26.284 100.623 24.82C100.431 22.42 100.263 19.936 100.119 17.368C99.9993 14.8 99.9393 12.112 99.9393 9.304C99.9393 8.704 100.119 8.188 100.479 7.756C100.839 7.324 101.571 7.108 102.675 7.108C103.347 7.108 103.911 7.192 104.367 7.36C104.847 7.528 105.219 7.816 105.483 8.224C105.555 8.344 105.615 8.452 105.663 8.548C105.711 8.644 105.747 8.752 105.771 8.872C105.795 8.968 105.807 9.1 105.807 9.268C105.807 9.436 105.807 9.664 105.807 9.952C106.023 9.256 106.503 8.632 107.247 8.08C107.991 7.528 108.903 7.228 109.983 7.18C111.231 7.108 112.347 7.336 113.331 7.864ZM145.827 26.656C145.491 26.656 145.275 26.524 145.179 26.26C145.059 25.852 144.939 25.456 144.819 25.072C144.699 24.688 144.555 24.232 144.387 23.704C144.099 24.16 143.727 24.58 143.271 24.964C142.839 25.348 142.347 25.684 141.795 25.972C141.267 26.26 140.691 26.488 140.067 26.656C139.467 26.848 138.879 26.956 138.303 26.98C137.031 27.052 135.807 26.872 134.631 26.44C133.455 26.008 132.423 25.36 131.535 24.496C130.671 23.632 129.975 22.588 129.447 21.364C128.943 20.116 128.703 18.724 128.727 17.188C128.751 15.532 129.039 14.068 129.591 12.796C130.143 11.524 130.875 10.456 131.787 9.592C132.699 8.728 133.743 8.092 134.919 7.684C136.095 7.252 137.319 7.072 138.591 7.144C139.959 7.216 141.099 7.504 142.011 8.008C142.947 8.512 143.583 9.184 143.919 10.024L144.099 8.332C144.171 7.732 144.375 7.396 144.711 7.324C145.479 7.204 146.175 7.144 146.799 7.144C147.423 7.144 148.107 7.204 148.851 7.324C149.403 7.444 149.691 7.924 149.715 8.764C149.739 9.604 149.751 10.48 149.751 11.392C149.775 12.28 149.787 13.168 149.787 14.056C149.787 16.288 149.763 18.424 149.715 20.464C149.667 22.48 149.607 24.136 149.535 25.432C149.511 25.84 149.379 26.14 149.139 26.332C148.923 26.548 148.635 26.656 148.275 26.656H145.827ZM141.615 21.364C142.143 21.1 142.587 20.764 142.947 20.356C143.331 19.924 143.631 19.432 143.847 18.88C144.063 18.304 144.171 17.668 144.171 16.972C144.147 15.604 143.727 14.5 142.911 13.66C142.119 12.82 141.003 12.352 139.563 12.256C138.795 12.208 138.087 12.304 137.439 12.544C136.791 12.76 136.215 13.084 135.711 13.516C135.231 13.948 134.847 14.476 134.559 15.1C134.295 15.7 134.163 16.372 134.163 17.116C134.163 17.98 134.307 18.748 134.595 19.42C134.883 20.068 135.291 20.596 135.819 21.004C136.347 21.412 136.959 21.7 137.655 21.868C138.375 22.036 139.155 22.048 139.995 21.904C140.571 21.808 141.111 21.628 141.615 21.364ZM160.035 33.748C159.771 34.06 159.507 34.264 159.243 34.36C159.003 34.48 158.739 34.528 158.451 34.504C158.187 34.48 157.911 34.396 157.623 34.252C157.335 34.132 157.035 33.976 156.723 33.784C156.003 33.376 155.559 32.92 155.391 32.416C155.223 31.936 155.307 31.444 155.643 30.94C156.219 30.028 156.771 29.164 157.299 28.348C157.827 27.556 158.223 26.896 158.487 26.368C158.583 26.176 158.643 25.972 158.667 25.756C158.715 25.54 158.655 25.264 158.487 24.928C157.983 23.92 157.419 22.78 156.795 21.508C156.171 20.236 155.547 18.928 154.923 17.584C154.323 16.216 153.735 14.848 153.159 13.48C152.583 12.112 152.079 10.804 151.647 9.556C151.455 9.052 151.587 8.584 152.043 8.152C152.499 7.72 153.075 7.408 153.771 7.216C154.035 7.144 154.335 7.084 154.671 7.036C155.007 6.988 155.331 6.988 155.643 7.036C155.955 7.06 156.243 7.144 156.507 7.288C156.771 7.408 156.963 7.612 157.083 7.9C158.019 10.012 158.859 12.04 159.603 13.984C160.347 15.904 161.067 17.824 161.763 19.744C162.507 17.656 163.215 15.676 163.887 13.804C164.583 11.908 165.303 9.988 166.047 8.044C166.287 7.42 166.683 7.072 167.235 7C167.811 6.904 168.483 6.964 169.251 7.18C170.259 7.468 170.895 7.828 171.159 8.26C171.423 8.668 171.483 9.16 171.339 9.736C171.051 10.84 170.643 12.1 170.115 13.516C169.611 14.908 169.035 16.372 168.387 17.908C167.763 19.444 167.079 20.992 166.335 22.552C165.615 24.112 164.883 25.6 164.139 27.016C163.395 28.432 162.663 29.716 161.943 30.868C161.247 32.044 160.611 33.004 160.035 33.748ZM192.059 21.04C191.555 22.24 190.847 23.272 189.935 24.136C189.023 25 187.919 25.672 186.623 26.152C185.327 26.656 183.887 26.92 182.303 26.944C180.935 26.968 179.627 26.752 178.379 26.296C177.155 25.864 176.075 25.24 175.139 24.424C174.203 23.608 173.447 22.636 172.871 21.508C172.295 20.38 171.971 19.144 171.899 17.8C171.827 16.384 171.995 15.052 172.403 13.804C172.835 12.532 173.483 11.428 174.347 10.492C175.211 9.532 176.279 8.764 177.551 8.188C178.823 7.588 180.287 7.252 181.943 7.18C183.647 7.108 185.171 7.312 186.515 7.792C187.883 8.272 189.035 8.968 189.971 9.88C190.907 10.768 191.615 11.824 192.095 13.048C192.599 14.272 192.851 15.592 192.851 17.008C192.851 18.472 192.587 19.816 192.059 21.04ZM184.499 21.364C185.075 21.076 185.555 20.704 185.939 20.248C186.347 19.792 186.647 19.264 186.839 18.664C187.031 18.064 187.115 17.416 187.091 16.72C187.043 16 186.875 15.364 186.587 14.812C186.323 14.236 185.951 13.756 185.471 13.372C185.015 12.988 184.475 12.712 183.851 12.544C183.251 12.352 182.603 12.292 181.907 12.364C180.539 12.484 179.435 12.988 178.595 13.876C177.779 14.764 177.371 15.892 177.371 17.26C177.371 17.956 177.503 18.604 177.767 19.204C178.031 19.78 178.391 20.272 178.847 20.68C179.303 21.088 179.843 21.4 180.467 21.616C181.091 21.832 181.775 21.916 182.519 21.868C183.263 21.82 183.923 21.652 184.499 21.364Z" fill="#70C3FF"/>
</svg>
