<svg width="25" height="24" viewBox="0 0 25 24" fill="none" xmlns="http://www.w3.org/2000/svg">
<g clip-path="url(#clip0_478_365)">
<path d="M5.76599 9.765C6.23387 8.34945 7.13685 7.11781 8.3461 6.2458C9.55536 5.37378 11.0091 4.90594 12.5 4.909C14.19 4.909 15.718 5.509 16.918 6.491L20.41 3C18.282 1.145 15.555 0 12.5 0C7.76999 0 3.69799 2.698 1.73999 6.65L5.76599 9.765Z" fill="#EA4335"/>
<path d="M16.54 18.0129C15.45 18.7159 14.066 19.0909 12.5 19.0909C11.0151 19.094 9.5668 18.6299 8.36024 17.7643C7.15367 16.8987 6.24994 15.6755 5.777 14.2679L1.737 17.3349C2.72824 19.3412 4.26227 21.0293 6.16482 22.2075C8.06738 23.3857 10.2622 24.0066 12.5 23.9999C15.433 23.9999 18.235 22.9569 20.334 20.9999L16.541 18.0129H16.54Z" fill="#34A853"/>
<path d="M20.334 21C22.529 18.952 23.954 15.904 23.954 12C23.954 11.29 23.845 10.527 23.682 9.81799H12.5V14.455H18.936C18.619 16.014 17.766 17.221 16.541 18.013L20.334 21Z" fill="#4A90E2"/>
<path d="M5.77699 14.268C5.53235 13.5369 5.40806 12.771 5.40899 12C5.40899 11.218 5.53399 10.467 5.76599 9.76502L1.73999 6.65002C0.916372 8.31271 0.491798 10.1445 0.499994 12C0.499994 13.92 0.944994 15.73 1.73699 17.335L5.77699 14.268Z" fill="#FBBC05"/>
</g>
<defs>
<clipPath id="clip0_478_365">
<rect width="24" height="24" fill="white" transform="translate(0.5)"/>
</clipPath>
</defs>
</svg>
